<svg width="15" viewBox="0 0 17 20" fill="none" xmlns="http://www.w3.org/2000/svg">
<path d="M7.8025 5C7.30805 5 6.8247 4.85338 6.41357 4.57867C6.00245 4.30397 5.68202 3.91352 5.4928 3.45671C5.30358 2.99989 5.25407 2.49723 5.35054 2.01228C5.447 1.52732 5.6851 1.08187 6.03473 0.732234C6.38436 0.382603 6.82982 0.144501 7.31477 0.0480379C7.79973 -0.0484251 8.30239 0.00108322 8.75921 0.190302C9.21602 0.379521 9.60647 0.699953 9.88117 1.11108C10.1559 1.5222 10.3025 2.00555 10.3025 2.5C10.3025 3.16304 10.0391 3.79893 9.57027 4.26777C9.10143 4.73661 8.46554 5 7.8025 5Z" fill="white"/>
<path d="M15.3025 20C16.223 20 16.9692 19.2538 16.9692 18.3333C16.9692 17.4129 16.223 16.6667 15.3025 16.6667C14.382 16.6667 13.6358 17.4129 13.6358 18.3333C13.6358 19.2538 14.382 20 15.3025 20Z" fill="white"/>
<path d="M6.96917 18.3333C6.2342 18.3374 5.51872 18.0971 4.93515 17.6503C4.35158 17.2035 3.933 16.5755 3.74517 15.8649C3.55734 15.1544 3.61092 14.4015 3.89749 13.7247C4.18406 13.0479 4.68737 12.4855 5.32833 12.1258L4.98667 10.4167L4.72917 10.5467C3.9354 10.9466 3.26276 11.5511 2.7807 12.2978C2.29865 13.0446 2.02464 13.9065 1.98699 14.7945C1.94933 15.6825 2.14939 16.5645 2.5665 17.3493C2.98361 18.1342 3.60265 18.7935 4.35972 19.2592C5.11678 19.7248 5.98442 19.98 6.87305 19.9983C7.76168 20.0166 8.63908 19.7974 9.41467 19.3633C10.1903 18.9291 10.8359 18.2959 11.285 17.5288C11.734 16.7618 11.9702 15.8888 11.9692 15H10.3025C10.3025 15.8841 9.95131 16.7319 9.32619 17.357C8.70107 17.9821 7.85322 18.3333 6.96917 18.3333Z" fill="white"/>
<path d="M14.4692 11.6667H10.335L9.43667 7.1725C9.3498 6.73927 9.09445 6.35826 8.72676 6.11324C8.35906 5.86821 7.90912 5.77922 7.47583 5.86583L2.66333 6.67833C2.54168 6.69945 2.42623 6.74734 2.32535 6.81853C2.22446 6.88973 2.14066 6.98245 2.08 7.09L0 10.7625L1.45083 11.5825L3.3325 8.255L6.16583 7.7775C6.16583 7.79417 6.16583 7.81 6.17083 7.8275L7.00417 11.9942C7.07977 12.3714 7.28357 12.7109 7.58097 12.955C7.87838 13.1991 8.25108 13.3328 8.63583 13.3333H14.4692V15H16.1358V13.3333C16.1358 12.8913 15.9602 12.4674 15.6477 12.1548C15.3351 11.8423 14.9112 11.6667 14.4692 11.6667Z" fill="white"/>
</svg>
