<svg width="15" viewBox="0 0 12 13" fill="none" xmlns="http://www.w3.org/2000/svg">
<path fill-rule="evenodd" clip-rule="evenodd" d="M1.5 3C2.32843 3 3 2.32843 3 1.5C3 0.671573 2.32843 0 1.5 0C0.671573 0 0 0.671573 0 1.5C0 2.32843 0.671573 3 1.5 3ZM5.77955 3.7472C6.02182 3.91203 6.30666 4 6.59805 4C6.98878 4 7.36351 3.84197 7.6398 3.56066C7.91609 3.27936 8.07131 2.89783 8.07131 2.5C8.07131 2.20333 7.9849 1.91332 7.82302 1.66665C7.66113 1.41997 7.43104 1.22771 7.16184 1.11418C6.89263 1.00065 6.59641 0.970945 6.31063 1.02882C6.02484 1.0867 5.76233 1.22956 5.55629 1.43934C5.35025 1.64912 5.20994 1.91639 5.15309 2.20737C5.09625 2.49834 5.12542 2.79994 5.23693 3.07403C5.34844 3.34811 5.53727 3.58238 5.77955 3.7472ZM12 12C12 12.5523 11.5603 13 11.0178 13C10.4754 13 10.0357 12.5523 10.0357 12C10.0357 11.4477 10.4754 11 11.0178 11C11.5603 11 12 11.4477 12 12ZM6.10696 12C5.67384 12.0024 5.25221 11.8583 4.9083 11.5902C4.5644 11.3221 4.31773 10.9453 4.20704 10.519C4.09636 10.0926 4.12793 9.64091 4.29681 9.23483C4.46568 8.82874 4.76228 8.49129 5.14001 8.2755L4.93866 7.25L4.78692 7.328C4.31915 7.56795 3.92276 7.93067 3.63868 8.37871C3.3546 8.82675 3.19313 9.34387 3.17094 9.87668C3.14875 10.4095 3.26664 10.9387 3.51245 11.4096C3.75825 11.8805 4.12306 12.2761 4.5692 12.5555C5.01534 12.8349 5.52664 12.988 6.05032 12.999C6.57399 13.01 7.09105 12.8784 7.54811 12.618C8.00516 12.3575 8.38565 11.9775 8.65029 11.5173C8.91492 11.0571 9.05411 10.5333 9.05348 10H8.0713C8.0713 10.5304 7.86435 11.0391 7.49596 11.4142C7.12757 11.7893 6.62794 12 6.10696 12ZM8.09046 8H10.5267C10.7872 8 11.037 8.10536 11.2212 8.29289C11.4054 8.48043 11.5089 8.73478 11.5089 9V10H10.5267V9H7.08913C6.8624 8.99965 6.64276 8.91945 6.4675 8.77299C6.29224 8.62653 6.17214 8.42285 6.12758 8.1965L5.6365 5.6965C5.63355 5.686 5.63355 5.6765 5.63355 5.6665L3.96386 5.953L2.85498 7.9495L2 7.4575L3.22575 5.254C3.2615 5.18947 3.31088 5.13384 3.37034 5.09112C3.42979 5.0484 3.49782 5.01967 3.56951 5.007L6.40554 4.5195C6.66087 4.46753 6.92603 4.52093 7.14271 4.66794C7.3594 4.81496 7.50987 5.04356 7.56107 5.3035L8.09046 8ZM0.5 4C0.776142 4 1 4.22386 1 4.5V5H2.5C2.77614 5 3 5.22386 3 5.5C3 5.77614 2.77614 6 2.5 6H1L1 12.5C1 12.7761 0.776143 13 0.5 13C0.223858 13 0 12.7761 0 12.5V5.5V4.5C0 4.22386 0.223858 4 0.5 4Z" fill="white"/>
</svg>
